<svg xmlns="http://www.w3.org/2000/svg" xmlns:xlink="http://www.w3.org/1999/xlink" xmlns:inkscape="http://www.inkscape.org/namespaces/inkscape" version="1.1" width="138" height="131" viewBox="0 0 138 131">
<defs>
<path id="font_1_64" d="M.27598573 .18710327V.24511719H.010986328V.18710327H.27598573Z"/>
<path id="font_1_82" d="M.4189911 0V.0309906H.3869934C.29699708 .0309906 .2939911 .041992189 .2939911 .07902527V.64012148C.2939911 .6640167 .2939911 .6660156 .2709961 .6660156 .20899964 .60227969 .12098694 .60227969 .08898926 .60227969V.57128909C.10899353 .57128909 .16799927 .57128909 .21998596 .5972748V.07902527C.21998596 .042999269 .21699524 .0309906 .1269989 .0309906H.09498596V0C.12998963 .0029907227 .21699524 .0029907227 .25698854 .0029907227 .29699708 .0029907227 .38398744 .0029907227 .4189911 0Z"/>
<path id="font_1_107" d="M.44898988 .17396546H.42399598C.4189911 .14398194 .4119873 .099990848 .4019928 .084991458 .394989 .07699585 .32899476 .07699585 .30699159 .07699585H.1269989L.23298645 .17996216C.3889923 .31803895 .44898988 .37210084 .44898988 .47216798 .44898988 .5860901 .35899354 .6660156 .23699951 .6660156 .12399292 .6660156 .049987794 .57411196 .049987794 .48516847 .049987794 .4291687 .099990848 .4291687 .102996829 .4291687 .11999512 .4291687 .15499878 .44117738 .15499878 .48217774 .15499878 .5081787 .13699341 .5341797 .101989749 .5341797 .09399414 .5341797 .09199524 .5341797 .08898926 .5331726 .11199951 .59806826 .1659851 .63500979 .22399903 .63500979 .31498719 .63500979 .35798646 .5541382 .35798646 .47216798 .35798646 .39196778 .30799867 .31297303 .25299073 .25097657L.06098938 .036987306C.049987794 .025985718 .049987794 .023986817 .049987794 0H.42099L.44898988 .17396546Z"/>
<path id="font_2_2" d="M.48599244 .38136292C.48999024 .39537049 .48999024 .39736939 .48999024 .40437318 .48999024 .42237855 .47599793 .43138124 .46099855 .43138124 .45098878 .43138124 .43499757 .42536927 .42599488 .41036988 .42399598 .405365 .41600038 .37435914 .4119873 .35635377 .40499879 .33035279 .397995 .30334474 .3919983 .27633668L.34700013 .09628296C.34298707 .08126831 .2999878 .011245728 .23399353 .011245728 .18299866 .011245728 .17199707 .055267335 .17199707 .0922699 .17199707 .1382904 .18899536 .20030213 .22299195 .28833009 .23899842 .3293457 .24299622 .3403473 .24299622 .36035157 .24299622 .405365 .21099854 .4423828 .16099549 .4423828 .06599426 .4423828 .0289917 .29733277 .0289917 .28833009 .0289917 .27833558 .038986207 .27833558 .040985109 .27833558 .050994874 .27833558 .051986696 .28033448 .056991579 .29634095 .083999637 .3903656 .12399292 .42037965 .1579895 .42037965 .1659851 .42037965 .18299866 .42037965 .18299866 .3883667 .18299866 .36335755 .17298889 .3373413 .1659851 .31834413 .12599182 .21231079 .10798645 .1552887 .10798645 .10827637 .10798645 .019256592 .17098999-.0107421879 .22999573-.0107421879 .2689972-.0107421879 .30299378 .0062561037 .33099366 .03425598 .31799317-.017745972 .30599977-.06674194 .2659912-.11973572 .23999024-.15385437 .20199585-.18309021 .1559906-.18309021 .14199829-.18309021 .09700012-.18005371 .07998657-.14074707 .09599304-.14074707 .10899353-.14074707 .12298584-.1287384 .1329956-.11973572 .14299011-.10673523 .14299011-.08773804 .14299011-.056747438 .115997318-.052734376 .10598755-.052734376 .08299255-.052734376 .049987794-.068740848 .049987794-.11773682 .049987794-.16796875 .09399414-.20507813 .1559906-.20507813 .25898744-.20507813 .3619995-.11373901 .3899994-.00074768069L.48599244 .38136292Z"/>
<path id="font_3_2" d="M.68699648 .32714845C.70199587 .32714845 .72099307 .32714845 .72099307 .34713746 .72099307 .36714173 .70199587 .36714173 .6879883 .36714173H.08898926C.07499695 .36714173 .055999757 .36714173 .055999757 .34713746 .055999757 .32714845 .07499695 .32714845 .08999634 .32714845H.68699648M.6879883 .13284302C.70199587 .13284302 .72099307 .13284302 .72099307 .15284729 .72099307 .17285156 .70199587 .17285156 .68699648 .17285156H.08999634C.07499695 .17285156 .055999757 .17285156 .055999757 .15284729 .055999757 .13284302 .07499695 .13284302 .08898926 .13284302H.6879883Z"/>
<path id="font_3_1" d="M.2939911 .64004519C.2939911 .66400149 .2939911 .6660156 .2709961 .6660156 .20899964 .60227969 .12098694 .60227969 .08898926 .60227969V.57128909C.10899353 .57128909 .16799927 .57128909 .21998596 .5972748V.07902527C.21998596 .042999269 .21699524 .0309906 .1269989 .0309906H.09498596V0C.12998963 .0029907227 .21699524 .0029907227 .25698854 .0029907227 .29699708 .0029907227 .38398744 .0029907227 .4189911 0V.0309906H.3869934C.29699708 .0309906 .2939911 .041992189 .2939911 .07902527V.64004519Z"/>
<path id="font_2_1" d="M.33399964 .30233766C.33999635 .32835389 .36299134 .42037965 .43299867 .42037965 .43798829 .42037965 .46199037 .42037965 .48298646 .40734864 .45498658 .402359 .43499757 .37734986 .43499757 .35334779 .43499757 .33735658 .44599916 .31835938 .47299195 .31835938 .49499513 .31835938 .5269928 .3363495 .5269928 .37635804 .5269928 .42837525 .46798707 .4423828 .43399049 .4423828 .37599183 .4423828 .34098817 .38935853 .32899476 .36634828 .3039856 .43237306 .25 .4423828 .22099304 .4423828 .116989139 .4423828 .05999756 .3133545 .05999756 .28834535 .05999756 .27833558 .069992069 .27833558 .07199097 .27833558 .07998657 .27833558 .08299255 .28033448 .084991458 .28933717 .11898804 .39535523 .18499756 .42037965 .21899414 .42037965 .23799134 .42037965 .272995 .4113617 .272995 .35334779 .272995 .32235719 .2559967 .25532533 .21899414 .11528015 .20298767 .053268434 .16799927 .011245728 .12399292 .011245728 .117996219 .011245728 .09498596 .011245728 .07398987 .024276734 .09899902 .029266358 .12098694 .05027771 .12098694 .07827759 .12098694 .105270389 .09899902 .11328125 .083999637 .11328125 .053985597 .11328125 .0289917 .08728027 .0289917 .055267335 .0289917 .009246826 .07899475-.0107421879 .12298584-.0107421879 .18899536-.0107421879 .22499085 .059280397 .22799683 .0652771 .23999024 .028274537 .27598573-.0107421879 .33599855-.0107421879 .43899537-.0107421879 .49598695 .118270877 .49598695 .14328003 .49598695 .1532898 .4869995 .1532898 .48399354 .1532898 .47499085 .1532898 .47299195 .14929199 .47099305 .14228821 .43798829 .03527832 .36999513 .011245728 .33799745 .011245728 .29899598 .011245728 .2829895 .043273927 .2829895 .07727051 .2829895 .09927368 .2889862 .121276859 .2999878 .16529846L.33399964 .30233766Z"/>
<path id="font_4_1" d="M.5049896 .18203736H.47099305C.46798707 .16001892 .45799256 .100997928 .44499208 .09098816 .43699647 .084991458 .3600006 .084991458 .34599305 .084991458H.1619873C.2669983 .17803955 .3019867 .20603943 .3619995 .25306703 .43598939 .312088 .5049896 .374115 .5049896 .46914674 .5049896 .5900879 .39898683 .6640625 .2709961 .6640625 .14698792 .6640625 .06298828 .57710269 .06298828 .4851532 .06298828 .43414308 .10598755 .42915345 .115997318 .42915345 .13999939 .42915345 .16899109 .44615174 .16899109 .48214723 .16899109 .5001526 .1619873 .53515627 .10998535 .53515627 .14099121 .6060791 .20899964 .62805178 .2559967 .62805178 .35598756 .62805178 .4079895 .5501404 .4079895 .46914674 .4079895 .38212586 .34599305 .3130951 .31399537 .27708436L.07299805 .038986207C.06298828 .02999878 .06298828 .027999878 .06298828 0H.47499085L.5049896 .18203736Z"/>
</defs>
<path transform="matrix(1.00009,0,0,-1.00003,1.832634,129.34049)" stroke-width=".79701" stroke-linecap="butt" stroke-miterlimit="10" stroke-linejoin="miter" fill="none" stroke="#000000" d="M5.53473 40.74945V43.30083M79.33136 40.74945V43.30083M116.22966 40.74945V43.30083"/>
<path transform="matrix(1.00009,0,0,-1.00003,1.832634,129.34049)" stroke-width=".79701" stroke-linecap="butt" stroke-miterlimit="10" stroke-linejoin="miter" fill="none" stroke="#000000" d="M41.15741 8.40501H43.70868M41.15741 75.64526H43.70868M41.15741 109.2654H43.70868"/>
<path transform="matrix(1.00009,0,0,-1.00003,1.832634,129.34049)" stroke-width=".3985" stroke-linecap="butt" stroke-miterlimit="10" stroke-linejoin="miter" fill="none" stroke="#000000" d="M0 42.02515H132.68631"/>
<path transform="matrix(1.00009,0,0,-1.00003,134.53089,87.31407)" d="M1.99252 0-1.19551 1.59401 0 0-1.19551-1.59401"/>
<path transform="matrix(1.00009,0,0,-1.00003,1.832634,129.34049)" stroke-width=".3985" stroke-linecap="butt" stroke-miterlimit="10" stroke-linejoin="miter" fill="none" stroke="#000000" d="M42.43304 0V115.6779"/>
<path transform="matrix(0,-1.00003,-1.00009,-0,44.269495,13.659111)" d="M1.99252 0-1.19551 1.59401 0 0-1.19551-1.59401"/>
<path transform="matrix(1.00009,0,0,-1.00003,1.832634,129.34049)" d="M42.43303 75.64526H42.48482 42.67746 42.87009 43.06273 43.25537 43.44801 43.64064 43.83328 44.02592 44.21857 44.41121 44.60384 44.79648 44.98912 45.18175 45.37439 45.56705 45.75966 45.9523 46.14494 46.3376 46.53023 46.72287 46.9155 47.10814 47.30078 47.49342 47.68607 47.8787 48.07133 48.26398 48.45662 48.64926 48.8419 49.03453 49.22716 49.41982 49.61246 49.80508 49.99771 50.19035 50.383 50.57564 50.76828 50.96092 51.15355 51.34619 51.53883 51.73148 51.92412 52.11674 52.30939 52.50203 52.69467 52.88731 53.07994 53.27258 53.46523 53.65787 53.8505 54.04314 54.2358 54.4284 54.62105 54.81369 55.00633 55.19897 55.3916 55.58424 55.77689 55.96953 56.16216 56.35481 56.54742 56.74008 56.93271 57.12537 57.31801 57.51062 57.70326 57.89589 58.08855 58.2812 58.47383 58.66646 58.85909 59.05174 59.2444 59.43701 59.62965 59.82228 60.01494 60.2076 60.4002 60.59286 60.78548 60.97813 61.17078 61.3634 61.55606 61.74869 61.94131 62.13397 62.3266 62.51924 62.71187 62.90451 63.09717 63.2898 63.48244 63.67506 63.8677 64.06035 64.25298 64.44563 64.63826 64.8309 65.02354 65.21617 65.40881 65.60144 65.79411 65.98676 66.17937 66.37201 66.56464 66.7573 66.94995 67.14256 67.3352 67.52783 67.72047 67.91313 68.10576 68.2984 68.49103 68.68367 68.87633 69.06895 69.26161 69.45421 69.64687 69.83952 70.03215 70.2248 70.4174 70.61006 70.80272 70.99533 71.18799 71.38062 71.57324 71.7659 71.95853 72.15118 72.34381 72.53644 72.7291 72.9217 73.11438 73.307 73.49965 73.69229 73.88492 74.07756 74.27019 74.46284 74.65549 74.84811 75.04076 75.23338 75.42603 75.61868 75.8113 76.00395 76.19658 76.38922 76.58188 76.77449 76.96713 77.15976 77.35242 77.54507 77.7377 77.93033 78.12296 78.31561 78.50827 78.70088 78.89354 79.08615 79.33134L79.33145 75.64561 79.27881 75.54958 79.08615 75.1999 78.89354 74.85214 78.70088 74.50615 78.50827 74.16206 78.31561 73.81973 78.12296 73.47925 77.93033 73.14063 77.7377 72.80382 77.54507 72.46889 77.35242 72.13573 77.15976 71.80441 76.96713 71.47495 76.77449 71.14731 76.58188 70.82152 76.38922 70.49754 76.19658 70.17537 76.00395 69.85509 75.8113 69.53659 75.61868 69.22 75.42603 68.90517 75.23338 68.59216 75.04076 68.28107 74.84811 67.97171 74.65549 67.66428 74.46284 67.35861 74.27019 67.05478 74.07756 66.75282 73.88492 66.45265 73.69229 66.15437 73.49965 65.85788 73.307 65.5632 73.11438 65.27042 72.9217 64.9794 72.7291 64.69029 72.53644 64.40294 72.34381 64.11745 72.15118 63.83383 71.95853 63.55199 71.7659 63.27202 71.57324 62.99385 71.38062 62.71751 71.18799 62.44304 70.99533 62.17036 70.80272 61.89958 70.61006 61.63055 70.4174 61.3634 70.2248 61.0981 70.03215 60.83458 69.83952 60.57295 69.64687 60.31311 69.45421 60.0551 69.26161 59.79897 69.06895 59.54462 68.87633 59.29214 68.68367 59.04147 68.49103 58.79262 68.2984 58.54565 68.10576 58.30048 67.91313 58.05716 67.72047 57.81564 67.52783 57.57596 67.3352 57.33817 67.14256 57.10216 66.94995 56.868 66.7573 56.63565 66.56464 56.40512 66.37201 56.17647 66.17937 55.94963 65.98676 55.72464 65.79411 55.50146 65.60144 55.28009 65.40881 55.06062 65.21617 54.84293 65.02354 54.62712 64.8309 54.41309 64.63826 54.2009 64.44563 53.99059 64.25298 53.78206 64.06035 53.5754 63.8677 53.37053 63.67506 53.16751 63.48244 52.96635 63.2898 52.767 63.09717 52.5695 62.90451 52.37381 62.71187 52.17995 62.51924 51.98795 62.3266 51.79776 62.13397 51.60944 61.94131 51.4229 61.74869 51.2382 61.55606 51.05536 61.3634 50.87434 61.17078 50.69518 60.97813 50.5178 60.78548 50.34227 60.59286 50.16861 60.4002 49.99675 60.2076 49.82674 60.01494 49.65854 59.82228 49.49216 59.62965 49.32767 59.43701 49.16495 59.2444 49.0041 59.05174 48.84508 58.85909 48.68787 58.66646 48.53252 58.47383 48.37898 58.2812 48.22731 58.08855 48.07744 57.89589 47.9294 57.70326 47.78322 57.51062 47.63884 57.31801 47.49632 57.12537 47.35562 56.93271 47.21675 56.74008 47.07973 56.54742 46.94452 56.35481 46.81117 56.16216 46.67963 55.96953 46.54991 55.77689 46.42206 55.58424 46.29602 55.3916 46.1718 55.19897 46.04944 55.00633 45.92891 54.81369 45.8102 54.62105 45.69333 54.4284 45.5783 54.2358 45.46509 54.04314 45.35371 53.8505 45.24417 53.65787 45.13646 53.46523 45.03058 53.27258 44.92653 53.07994 44.82431 52.88731 44.72395 52.69467 44.62541 52.50203 44.5287 52.30939 44.4338 52.11674 44.34077 51.92412 44.24956 51.73148 44.16017 51.53883 44.07263 51.34619 43.98692 51.15355 43.90303 50.96092 43.82097 50.76828 43.74077 50.57564 43.66237 50.383 43.58582 50.19035 43.51111 49.99771 43.43822 49.80508 43.36716 49.61246 43.29794 49.41982 43.23056 49.22716 43.16501 49.03453 43.10127 48.8419 43.0394 48.64926 42.97932 48.45662 42.92111 48.26398 42.86472 48.07133 42.81017 47.8787 42.75745 47.68607 42.70654 47.49342 42.65749 47.30078 42.61026 47.10814 42.56487 46.9155 42.5213 46.72287 42.47957 46.53023 42.43967 46.3376 42.40161 46.14494 42.36537 45.9523 42.33098 45.75966 42.2984 45.56705 42.26768 45.37439 42.23878 45.18175 42.2117 44.98912 42.1865 44.79648 42.16307 44.60384 42.14151 44.41121 42.12175 44.21857 42.10387 44.02592 42.08778 43.83328 42.07355 43.64064 42.06114 43.44801 42.05058 43.25537 42.04184 43.06273 42.03493 42.87009 42.02985 42.67746 42.02661 42.48482 42.0252 42.43303 42.02533Z" fill="#006699" fill-opacity=".35"/>
<use data-text="-" xlink:href="#font_1_64" transform="matrix(9.963496,0,0,-9.962899,3.2177582,98.74557)"/>
<use data-text="1" xlink:href="#font_1_82" transform="matrix(9.963496,0,0,-9.962899,6.5355989,98.74557)"/>
<use data-text="1" xlink:href="#font_1_82" transform="matrix(9.963496,0,0,-9.962899,78.68055,98.74557)"/>
<use data-text="2" xlink:href="#font_1_107" transform="matrix(9.963496,0,0,-9.962899,115.58187,98.74557)"/>
<use data-text="-" xlink:href="#font_1_64" transform="matrix(9.963496,0,0,-9.962899,31.174275,124.253337)"/>
<use data-text="1" xlink:href="#font_1_82" transform="matrix(9.963496,0,0,-9.962899,34.492116,124.253337)"/>
<use data-text="1" xlink:href="#font_1_82" transform="matrix(9.963496,0,0,-9.962899,34.49157,57.010309)"/>
<use data-text="2" xlink:href="#font_1_107" transform="matrix(9.963496,0,0,-9.962899,34.49157,23.389306)"/>
<path transform="matrix(1.00009,0,0,-1.00003,1.832634,129.34049)" stroke-width="1.79329" stroke-linecap="butt" stroke-miterlimit="10" stroke-linejoin="miter" fill="none" stroke="#0000cc" d="M36.8983 75.64526H37.09093 37.28357 37.47621 37.66885 37.8615 38.05414 38.24675 38.43939 38.63205 38.82468 39.01732 39.20996 39.40259 39.59523 39.78787 39.98051 40.17316 40.36578 40.55843 40.75107 40.94371 41.13635 41.329 41.5216 41.71426 41.9069 42.09953 42.29218 42.48482 42.67746 42.87009 43.06273 43.25537 43.44801 43.64064 43.83328 44.02592 44.21857 44.41121 44.60384 44.79648 44.98912 45.18175 45.37439 45.56705 45.75966 45.9523 46.14494 46.3376 46.53023 46.72287 46.9155 47.10814 47.30078 47.49342 47.68607 47.8787 48.07133 48.26398 48.45662 48.64926 48.8419 49.03453 49.22716 49.41982 49.61246 49.80508 49.99771 50.19035 50.383 50.57564 50.76828 50.96092 51.15355 51.34619 51.53883 51.73148 51.92412 52.11674 52.30939 52.50203 52.69467 52.88731 53.07994 53.27258 53.46523 53.65787 53.8505 54.04314 54.2358 54.4284 54.62105 54.81369 55.00633 55.19897 55.3916 55.58424 55.77689 55.96953 56.16216 56.35481 56.54742 56.74008 56.93271 57.12537 57.31801 57.51062 57.70326 57.89589 58.08855 58.2812 58.47383 58.66646 58.85909 59.05174 59.2444 59.43701 59.62965 59.82228 60.01494 60.2076 60.4002 60.59286 60.78548 60.97813 61.17078 61.3634 61.55606 61.74869 61.94131 62.13397 62.3266 62.51924 62.71187 62.90451 63.09717 63.2898 63.48244 63.67506 63.8677 64.06035 64.25298 64.44563 64.63826 64.8309 65.02354 65.21617 65.40881 65.60144 65.79411 65.98676 66.17937 66.37201 66.56464 66.7573 66.94995 67.14256 67.3352 67.52783 67.72047 67.91313 68.10576 68.2984 68.49103 68.68367 68.87633 69.06895 69.26161 69.45421 69.64687 69.83952 70.03215 70.2248 70.4174 70.61006 70.80272 70.99533 71.18799 71.38062 71.57324 71.7659 71.95853 72.15118 72.34381 72.53644 72.7291 72.9217 73.11438 73.307 73.49965 73.69229 73.88492 74.07756 74.27019 74.46284 74.65549 74.84811 75.04076 75.23338 75.42603 75.61868 75.8113 76.00395 76.19658 76.38922 76.58188 76.77449 76.96713 77.15976 77.35242 77.54507 77.7377 77.93033 78.12296 78.31561 78.50827 78.70088 78.89354 79.08615 79.27881 79.47145 79.66408 79.85674 80.04935 80.24199 80.43465 80.62727 80.81993 81.01254 81.20518 81.39784 81.59045 81.78311 81.97574 82.16838 82.36104 82.55367 82.7463 82.93893 83.13158 83.32422 83.51685 83.7095 83.90213 84.09477 84.28743 84.48003 84.67268 84.86531"/>
<use data-text="y" xlink:href="#font_2_2" transform="matrix(9.963496,0,0,-9.962899,90.92265,55.93428)" fill="#0000cc"/>
<use data-text="=" xlink:href="#font_3_2" transform="matrix(9.963496,0,0,-9.962899,98.93237,55.93428)" fill="#0000cc"/>
<use data-text="1" xlink:href="#font_3_1" transform="matrix(9.963496,0,0,-9.962899,109.4339,55.93428)" fill="#0000cc"/>
<path transform="matrix(1.00009,0,0,-1.00003,1.832634,129.34049)" stroke-width="1.79329" stroke-linecap="butt" stroke-miterlimit="10" stroke-linejoin="miter" fill="none" stroke="#cc0000" d="M36.8983 42.78159 37.09093 42.72984 37.28357 42.67995 37.47621 42.63185 37.66885 42.58563 37.8615 42.54121 38.05414 42.49864 38.24675 42.45789 38.43939 42.41899 38.63205 42.38191 38.82468 42.34665 39.01732 42.31323 39.20996 42.28166 39.40259 42.25192 39.59523 42.22398 39.78787 42.19792 39.98051 42.17368 40.17316 42.15125 40.36578 42.13066 40.55843 42.11191 40.75107 42.095 40.94371 42.07991 41.13635 42.06667 41.329 42.05524 41.5216 42.04565 41.71426 42.03789 41.9069 42.03197 42.09953 42.02788 42.29218 42.02562 42.48482 42.0252 42.67746 42.02661 42.87009 42.02985 43.06273 42.03493 43.25537 42.04184 43.44801 42.05058 43.64064 42.06114 43.83328 42.07355 44.02592 42.08778 44.21857 42.10387 44.41121 42.12175 44.60384 42.14151 44.79648 42.16307 44.98912 42.1865 45.18175 42.2117 45.37439 42.23878 45.56705 42.26768 45.75966 42.2984 45.9523 42.33098 46.14494 42.36537 46.3376 42.40161 46.53023 42.43967 46.72287 42.47957 46.9155 42.5213 47.10814 42.56487 47.30078 42.61026 47.49342 42.65749 47.68607 42.70654 47.8787 42.75745 48.07133 42.81017 48.26398 42.86472 48.45662 42.92111 48.64926 42.97932 48.8419 43.0394 49.03453 43.10127 49.22716 43.16501 49.41982 43.23056 49.61246 43.29794 49.80508 43.36716 49.99771 43.43822 50.19035 43.51111 50.383 43.58582 50.57564 43.66237 50.76828 43.74077 50.96092 43.82097 51.15355 43.90303 51.34619 43.98692 51.53883 44.07263 51.73148 44.16017 51.92412 44.24956 52.11674 44.34077 52.30939 44.4338 52.50203 44.5287 52.69467 44.62541 52.88731 44.72395 53.07994 44.82431 53.27258 44.92653 53.46523 45.03058 53.65787 45.13646 53.8505 45.24417 54.04314 45.35371 54.2358 45.46509 54.4284 45.5783 54.62105 45.69333 54.81369 45.8102 55.00633 45.92891 55.19897 46.04944 55.3916 46.1718 55.58424 46.29602 55.77689 46.42206 55.96953 46.54991 56.16216 46.67963 56.35481 46.81117 56.54742 46.94452 56.74008 47.07973 56.93271 47.21675 57.12537 47.35562 57.31801 47.49632 57.51062 47.63884 57.70326 47.78322 57.89589 47.9294 58.08855 48.07744 58.2812 48.22731 58.47383 48.37898 58.66646 48.53252 58.85909 48.68787 59.05174 48.84508 59.2444 49.0041 59.43701 49.16495 59.62965 49.32767 59.82228 49.49216 60.01494 49.65854 60.2076 49.82674 60.4002 49.99675 60.59286 50.16861 60.78548 50.34227 60.97813 50.5178 61.17078 50.69518 61.3634 50.87434 61.55606 51.05536 61.74869 51.2382 61.94131 51.4229 62.13397 51.60944 62.3266 51.79776 62.51924 51.98795 62.71187 52.17995 62.90451 52.37381 63.09717 52.5695 63.2898 52.767 63.48244 52.96635 63.67506 53.16751 63.8677 53.37053 64.06035 53.5754 64.25298 53.78206 64.44563 53.99059 64.63826 54.2009 64.8309 54.41309 65.02354 54.62712 65.21617 54.84293 65.40881 55.06062 65.60144 55.28009 65.79411 55.50146 65.98676 55.72464 66.17937 55.94963 66.37201 56.17647 66.56464 56.40512 66.7573 56.63565 66.94995 56.868 67.14256 57.10216 67.3352 57.33817 67.52783 57.57596 67.72047 57.81564 67.91313 58.05716 68.10576 58.30048 68.2984 58.54565 68.49103 58.79262 68.68367 59.04147 68.87633 59.29214 69.06895 59.54462 69.26161 59.79897 69.45421 60.0551 69.64687 60.31311 69.83952 60.57295 70.03215 60.83458 70.2248 61.0981 70.4174 61.3634 70.61006 61.63055 70.80272 61.89958 70.99533 62.17036 71.18799 62.44304 71.38062 62.71751 71.57324 62.99385 71.7659 63.27202 71.95853 63.55199 72.15118 63.83383 72.34381 64.11745 72.53644 64.40294 72.7291 64.69029 72.9217 64.9794 73.11438 65.27042 73.307 65.5632 73.49965 65.85788 73.69229 66.15437 73.88492 66.45265 74.07756 66.75282 74.27019 67.05478 74.46284 67.35861 74.65549 67.66428 74.84811 67.97171 75.04076 68.28107 75.23338 68.59216 75.42603 68.90517 75.61868 69.22 75.8113 69.53659 76.00395 69.85509 76.19658 70.17537 76.38922 70.49754 76.58188 70.82152 76.77449 71.14731 76.96713 71.47495 77.15976 71.80441 77.35242 72.13573 77.54507 72.46889 77.7377 72.80382 77.93033 73.14063 78.12296 73.47925 78.31561 73.81973 78.50827 74.16206 78.70088 74.50615 78.89354 74.85214 79.08615 75.1999 79.27881 75.54958 79.47145 75.90102 79.66408 76.25436 79.85674 76.60944 80.04935 76.96646 80.24199 77.3252 80.43465 77.68587 80.62727 78.0483 80.81993 78.41263 81.01254 78.77872 81.20518 79.14673 81.39784 79.51646 81.59045 79.88814 81.78311 80.26154 81.97574 80.63678 82.16838 81.01395 82.36104 81.39296 82.55367 81.77368 82.7463 82.15636 82.93893 82.54076 83.13158 82.92711 83.32422 83.31517 83.51685 83.70517 83.7095 84.09691 83.90213 84.49059 84.09477 84.88597 84.28743 85.28333 84.48003 85.68237 84.67268 86.08339 84.86531 86.4861"/>
<use data-text="y" xlink:href="#font_2_2" transform="matrix(9.963496,0,0,-9.962899,90.92365,45.93798)" fill="#cc0000"/>
<use data-text="=" xlink:href="#font_3_2" transform="matrix(9.963496,0,0,-9.962899,98.93337,45.93798)" fill="#cc0000"/>
<use data-text="x" xlink:href="#font_2_1" transform="matrix(9.963496,0,0,-9.962899,109.45032,45.93798)" fill="#cc0000"/>
<use data-text="2" xlink:href="#font_4_1" transform="matrix(6.9744279,0,0,-6.9740097,115.14483,42.321878)" fill="#cc0000"/>
<use data-text="x" xlink:href="#font_2_1" transform="matrix(9.963496,0,0,-9.962899,127.30892,95.12346)"/>
<use data-text="y" xlink:href="#font_2_2" transform="matrix(9.963496,0,0,-9.962899,35.506666,6.2097856)"/>
</svg>
