<svg xmlns="http://www.w3.org/2000/svg" xmlns:xlink="http://www.w3.org/1999/xlink" xmlns:inkscape="http://www.inkscape.org/namespaces/inkscape" version="1.1" width="136" height="77" viewBox="0 0 136 77">
<defs>
<path id="font_1_1" d="M.2939911 .64004519C.2939911 .66400149 .2939911 .6660156 .2709961 .6660156 .20899964 .60227969 .12098694 .60227969 .08898926 .60227969V.57128909C.10899353 .57128909 .16799927 .57128909 .21998596 .5972748V.07902527C.21998596 .042999269 .21699524 .0309906 .1269989 .0309906H.09498596V0C.12998963 .0029907227 .21699524 .0029907227 .25698854 .0029907227 .29699708 .0029907227 .38398744 .0029907227 .4189911 0V.0309906H.3869934C.29699708 .0309906 .2939911 .041992189 .2939911 .07902527V.64004519Z"/>
<path id="font_1_2" d="M.1269989 .07699585 .23298645 .18003845C.3889923 .31811524 .44898988 .3721466 .44898988 .47216798 .44898988 .5860901 .35899354 .6660156 .23699951 .6660156 .12399292 .6660156 .049987794 .57411196 .049987794 .48516847 .049987794 .4291687 .099990848 .4291687 .102996829 .4291687 .11999512 .4291687 .15499878 .44117738 .15499878 .48217774 .15499878 .5081787 .13699341 .5341797 .101989749 .5341797 .09399414 .5341797 .09199524 .5341797 .08898926 .5331726 .11199951 .59806826 .1659851 .63500979 .22399903 .63500979 .31498719 .63500979 .35798646 .5541382 .35798646 .47216798 .35798646 .39215089 .30799867 .31311036 .25299073 .25108338L.06098938 .036987306C.049987794 .025985718 .049987794 .023986817 .049987794 0H.42099L.44898988 .17404175H.42399598C.4189911 .14402771 .4119873 .1000061 .4019928 .084991458 .394989 .07699585 .32899476 .07699585 .30699159 .07699585H.1269989Z"/>
<path id="font_1_3" d="M.2939911 .16503906V.07800293C.2939911 .041992189 .2919922 .0309906 .21798706 .0309906H.19699097V0C.23799134 .0029907227 .2899933 .0029907227 .33198548 .0029907227 .37399293 .0029907227 .4269867 .0029907227 .46798707 0V.0309906H.44699098C.37298585 .0309906 .37098695 .041992189 .37098695 .07800293V.16503906H.47099305V.19602967H.37098695V.65075686C.37098695 .67074587 .37098695 .6767578 .35499574 .6767578 .34599305 .6767578 .34298707 .6767578 .33499146 .66474917L.027999878 .19602967V.16503906H.2939911M.2999878 .19602967H.055999757L.2999878 .5688019V.19602967Z"/>
<clipPath id="clip_2">
<path transform="matrix(1.00003,0,0,-1.00008,1.3955002,73.731868)" d="M0 0H133.13079V53.75206H0Z"/>
</clipPath>
<path id="font_3_121" d="M.47299195 .31976319C.47299195 .38682557 .46998597 .47288514 .43499757 .5479431 .3909912 .64201357 .31498719 .6660156 .25698854 .6660156 .19699097 .6660156 .12098694 .64201357 .07699585 .5459442 .04499817 .47688294 .039993287 .39582826 .039993287 .31976319 .039993287 .25471498 .041992189 .15765381 .084991458 .07858276 .13198853-.0064697267 .20999146-.022460938 .2559967-.022460938 .32099916-.022460938 .394989 .0055389406 .43699647 .097595218 .46699525 .1646576 .47299195 .23971558 .47299195 .31976319M.3869934 .33177186C.3869934 .2697296 .3869934 .18566895 .3769989 .12661743 .35598756 .012542725 .28199769 .002532959 .25698854 .002532959 .22698975 .002532959 .15499878 .016540528 .13598633 .12962342 .12599182 .18867493 .12599182 .2747345 .12599182 .33177186 .12599182 .39982606 .12599182 .47888185 .13798523 .53393557 .1579895 .6230011 .22200012 .64100649 .2559967 .64100649 .2939911 .64100649 .35699464 .62098696 .37599183 .5279236 .3869934 .47288514 .3869934 .39482118 .3869934 .33177186Z"/>
<path id="font_3_88" d="M.19599915 .053985597C.19599915 .08299255 .17199707 .10798645 .14199829 .10798645 .11199951 .10798645 .08799744 .08299255 .08799744 .053985597 .08799744 .023986817 .11199951 0 .14199829 0 .17199707 0 .19599915 .023986817 .19599915 .053985597Z"/>
<path id="font_3_101" d="M.46998597 .20277405C.46998597 .32977296 .37799073 .42578126 .2649994 .42578126 .20498657 .42578126 .1619873 .3907776 .13398743 .33078004 .13398743 .43276979 .14498902 .4897766 .17199707 .54177859 .19198609 .58277896 .24099732 .64100649 .31498719 .64100649 .33499146 .64100649 .3809967 .63697817 .4039917 .6007843 .36698915 .6007843 .35099793 .5817871 .35099793 .55477908 .35099793 .5287781 .36898805 .50878909 .39698792 .50878909 .4249878 .50878909 .44400025 .5267792 .44400025 .55677798 .44400025 .61299136 .4039917 .6660156 .31298829 .6660156 .18399048 .6660156 .042999269 .5389252 .042999269 .31576539 .042999269 .044555665 .16499329-.022460938 .25898744-.022460938 .36999513-.022460938 .46998597 .07052612 .46998597 .2025299V.20277405M.3789978 .20353699C.3789978 .15553284 .3789978 .106536868 .3600006 .0695343 .32899476 .012527466 .2849884 .0055389406 .2579956 .0055389406 .20098877 .0055389406 .16799927 .05253601 .1559906 .08152771 .13699341 .12652588 .13598633 .20953369 .13598633 .2255249 .13598633 .2927704 .16699219 .4007721 .2630005 .4007721 .2789917 .4007721 .32798768 .4007721 .3600006 .33877564 .3789978 .300766 .3789978 .25177003 .3789978 .20376587V.20353699Z"/>
<path id="font_3_56" d="M.46199037 .19992066C.46199037 .3209076 .37599183 .41992188 .2669983 .41992188 .21899414 .41992188 .16999817 .4039154 .1349945 .36791993V.5647888C.16499329 .55578616 .19599915 .55078127 .22698975 .55078127 .34999085 .55078127 .42199708 .63983157 .42199708 .6529236 .42199708 .6619873 .41600038 .6660156 .41099549 .6660156 .41099549 .6660156 .40699769 .6660156 .397995 .6609802 .35099793 .6418457 .30499269 .63378909 .2630005 .63378909 .21998596 .63378909 .1749878 .6418457 .1289978 .6609802 .11898804 .6660156 .115997318 .6660156 .115997318 .6660156 .10398865 .6660156 .10398865 .6559448 .10398865 .63882449V.34490968C.10398865 .32699586 .10398865 .31599427 .117996219 .31599427 .12599182 .31562806 .1289978 .3196411 .1349945 .32867433 .16499329 .37083436 .21299744 .39491273 .2649994 .39491273 .37199403 .39491273 .37199403 .24035645 .37199403 .20422364 .37199403 .17321778 .37199403 .11122131 .34399415 .06636047 .31698609 .024475098 .2749939 .0055389406 .23599243 .0055389406 .1769867 .0055389406 .10998535 .042419435 .085998538 .11621094 .085998538 .116882327 .09298706 .11488342 .099990848 .11488342 .11999512 .11488342 .14898682 .12788391 .14898682 .1638794 .14898682 .19488526 .1269989 .21289063 .099990848 .21289063 .07899475 .21289063 .050994874 .20088196 .050994874 .16088867 .050994874 .069732669 .1269989-.022460938 .23799134-.022460938 .35899354-.02279663 .46199037 .07521057 .46199037 .19921875V.19992066Z"/>
<path id="font_4_1" d="M.3039856 .6392822C.3039856 .6642761 .30299378 .666275 .27799989 .666275 .21598816 .60227969 .12399292 .60227969 .09298706 .60227969V.57128909C.11199951 .57128909 .17298889 .57128909 .22698975 .5972748V.08001709C.22698975 .042999269 .22399903 .0309906 .1309967 .0309906H.09899902V0C.1349945 .0029907227 .22399903 .0029907227 .2649994 .0029907227 .30599977 .0029907227 .3959961 .0029907227 .43199159 0V.0309906H.3999939C.30699159 .0309906 .3039856 .042999269 .3039856 .08001709V.6392822Z"/>
<path id="font_5_1" d="M.19599915 .053985597C.19599915 .08299255 .17298889 .10798645 .14199829 .10798645 .11099243 .10798645 .08799744 .08299255 .08799744 .053985597 .08799744 .024993897 .11099243 0 .14199829 0 .17298889 0 .19599915 .024993897 .19599915 .053985597Z"/>
<path id="font_4_3" d="M.3789978 .31478883V.2927704C.3789978 .04875183 .2679901 .0055389406 .21099854 .0055389406 .18798828 .0055389406 .13699341 .009552002 .11099243 .042755128H.114990238C.12298584 .040740968 .1619873 .04875183 .1619873 .088760379 .1619873 .11476135 .14399719 .13476563 .115997318 .13476563 .08799744 .13476563 .068984989 .116760257 .068984989 .086761478 .068984989 .020629883 .12199402-.022460938 .21199036-.022460938 .34098817-.022460938 .46998597 .10975647 .46998597 .3287964 .46998597 .5999756 .34999085 .6660156 .2599945 .6660156 .14498902 .6660156 .042999269 .5729675 .042999269 .44187928 .042999269 .31478883 .1349945 .21875 .24798584 .21875 .32099916 .21875 .36099244 .27175904 .3789978 .31478883M.25 .2437439C.23399353 .2437439 .18499756 .2437439 .15299988 .30578614 .13398743 .34381105 .13398743 .39283753 .13398743 .4408722 .13398743 .48890687 .13398743 .5389404 .15499878 .57696536 .18499756 .628006 .22399903 .64100649 .2599945 .64100649 .32798768 .64100649 .35499574 .57196047 .35899354 .5619507 .37298585 .52493289 .3769989 .4638977 .3769989 .42086793 .3769989 .34780885 .34399415 .2437439 .25 .2437439Z"/>
<path id="font_4_2" d="M.13398743 .33073426C.13398743 .43276979 .14498902 .4897766 .17199707 .54177859 .19198609 .58277896 .24099732 .64100649 .31498719 .64100649 .33499146 .64100649 .3809967 .63697817 .4039917 .6007843 .36698915 .6007843 .35099793 .5817871 .35099793 .55477908 .35099793 .5287781 .36898805 .50878909 .39698792 .50878909 .4249878 .50878909 .44400025 .5267792 .44400025 .55677798 .44400025 .612854 .4039917 .6660156 .31298829 .6660156 .18399048 .6660156 .042999269 .53878787 .042999269 .3157196 .042999269 .044555665 .16499329-.022460938 .25898744-.022460938 .36999513-.022460938 .46998597 .0705719 .46998597 .20265198 .46998597 .32972718 .37799073 .42578126 .2649994 .42578126 .20498657 .42578126 .1619873 .39076234 .13398743 .33073426M.2579956 .0055389406C.20098877 .0055389406 .16799927 .05256653 .1559906 .08157349 .13699341 .12660218 .13598633 .20965576 .13598633 .22566223 .13598633 .29270936 .16699219 .4007721 .2630005 .4007721 .2789917 .4007721 .32798768 .4007721 .3600006 .33872987 .3789978 .30070497 .3789978 .25167848 .3789978 .20365906 .3789978 .15562439 .3789978 .1065979 .3600006 .06956482 .32899476 .012542725 .2849884 .0055389406 .2579956 .0055389406Z"/>
<path id="font_6_1" d="M.1789856 .23242188C.20599365 .23242188 .27398683 .23442078 .32199098 .2524109 .397995 .28141786 .40499879 .33940126 .40499879 .35740663 .40499879 .4013977 .36698915 .44140626 .30099488 .44140626 .19599915 .44140626 .04499817 .34640504 .04499817 .16836548 .04499817 .0632782 .10499573-.009765625 .19599915-.009765625 .33198548-.009765625 .41799928 .09629822 .41799928 .109313968 .41799928 .11531067 .4119873 .12031555 .4079895 .12031555 .40499879 .12031555 .4039917 .11932373 .394989 .110305789 .33099366 .025238038 .23599243 .010223389 .19799805 .010223389 .14099121 .010223389 .11099243 .055267335 .11099243 .1293335 .11099243 .14334107 .11099243 .16836548 .12599182 .23242188H.1789856M.1309967 .2524109C.17399597 .4064026 .2689972 .42140199 .30099488 .42140199 .34498597 .42140199 .375 .395401 .375 .35740663 .375 .2524109 .21499634 .2524109 .17298889 .2524109H.1309967Z"/>
<path id="font_7_1" d="M.22099304 .3976593H.31900025C.33799745 .3976593 .34999085 .3976593 .34999085 .4166565 .34999085 .43066407 .33699037 .43066407 .31999208 .43066407H.22898865L.2649994 .57250979C.2689972 .58750918 .2689972 .5924988 .2689972 .5934906 .2689972 .6144867 .25299073 .6244812 .23599243 .6244812 .20199585 .6244812 .19499207 .5974884 .18399048 .552536L.15299988 .43066407H.056991579C.037994386 .43066407 .024993897 .43066407 .024993897 .4116516 .024993897 .3976593 .037994386 .3976593 .054992677 .3976593H.14498902L.084991458 .15802002C.07899475 .13305664 .069992069 .09811401 .069992069 .084121707 .069992069 .024215699 .11898804-.009765625 .17199707-.009765625 .2789917-.009765625 .33999635 .13105774 .33999635 .14303589 .33999635 .15402222 .33099366 .15602112 .32499696 .15602112 .31399537 .15602112 .31298829 .15202332 .30599977 .13705445 .28599549 .08912659 .23599243 .018234253 .1749878 .018234253 .1539917 .018234253 .14199829 .032211305 .14199829 .06515503 .14199829 .084121707 .14498902 .09510803 .147995 .10809326L.22099304 .3976593Z"/>
<path id="font_8_1" d="M.20599365 .3996582H.2999878C.31999208 .3996582 .32998658 .3996582 .32998658 .41966249 .32998658 .43066407 .31999208 .43066407 .3019867 .43066407H.21398926C.25 .5724945 .25498963 .59246829 .25498963 .59846499 .25498963 .61546328 .24299622 .62545779 .22599793 .62545779 .22299195 .62545779 .19499207 .62446597 .18598938 .58947756L.14698792 .43066407H.052993776C.032989503 .43066407 .022994996 .43066407 .022994996 .4116516 .022994996 .3996582 .0309906 .3996582 .050994874 .3996582H.13899231C.066986087 .11608887 .06298828 .099121097 .06298828 .08114624 .06298828 .02722168 .100997928-.0107421879 .15499878-.0107421879 .25698854-.0107421879 .31399537 .13505554 .31399537 .14305115 .31399537 .1530304 .30599977 .1530304 .3019867 .1530304 .29299928 .1530304 .2919922 .15003968 .2869873 .13905335 .24398804 .035217287 .19099427 .011245728 .15699768 .011245728 .13598633 .011245728 .12599182 .024230957 .12599182 .057174684 .12599182 .08114624 .12799073 .088134769 .13198853 .10510254L.20599365 .3996582Z"/>
<path id="font_8_2" d="M.48599244 .38136292C.48999024 .39537049 .48999024 .39736939 .48999024 .40437318 .48999024 .42237855 .47599793 .43138124 .46099855 .43138124 .45098878 .43138124 .43499757 .42536927 .42599488 .41036988 .42399598 .405365 .41600038 .37435914 .4119873 .35635377 .40499879 .33035279 .397995 .30334474 .3919983 .27633668L.34700013 .09628296C.34298707 .08126831 .2999878 .011245728 .23399353 .011245728 .18299866 .011245728 .17199707 .055267335 .17199707 .0922699 .17199707 .1382904 .18899536 .20030213 .22299195 .28833009 .23899842 .3293457 .24299622 .3403473 .24299622 .36035157 .24299622 .405365 .21099854 .4423828 .16099549 .4423828 .06599426 .4423828 .0289917 .29733277 .0289917 .28833009 .0289917 .27833558 .038986207 .27833558 .040985109 .27833558 .050994874 .27833558 .051986696 .28033448 .056991579 .29634095 .083999637 .3903656 .12399292 .42037965 .1579895 .42037965 .1659851 .42037965 .18299866 .42037965 .18299866 .3883667 .18299866 .36335755 .17298889 .3373413 .1659851 .31834413 .12599182 .21231079 .10798645 .1552887 .10798645 .10827637 .10798645 .019256592 .17098999-.0107421879 .22999573-.0107421879 .2689972-.0107421879 .30299378 .0062561037 .33099366 .03425598 .31799317-.017745972 .30599977-.06674194 .2659912-.11973572 .23999024-.15385437 .20199585-.18309021 .1559906-.18309021 .14199829-.18309021 .09700012-.18005371 .07998657-.14074707 .09599304-.14074707 .10899353-.14074707 .12298584-.1287384 .1329956-.11973572 .14299011-.10673523 .14299011-.08773804 .14299011-.056747438 .115997318-.052734376 .10598755-.052734376 .08299255-.052734376 .049987794-.068740848 .049987794-.11773682 .049987794-.16796875 .09399414-.20507813 .1559906-.20507813 .25898744-.20507813 .3619995-.11373901 .3899994-.00074768069L.48599244 .38136292Z"/>
<path id="font_3_27" d="M.73599246 0V.0309906H.71899417C.6569977 .0309906 .6459961 .039978029 .6359863 .06794739L.40899659 .69480898C.4039917 .70780947 .40098573 .7158203 .3849945 .7158203 .36898805 .7158203 .36698915 .70980837 .36099244 .6938019L.1459961 .09989929C.13398743 .06694031 .11099243 .03199768 .033996583 .0309906V0C.07199097 .0029907227 .09899902 .0029907227 .13598633 .0029907227L.24899292 0V.0309906C.19198609 .03199768 .1749878 .06295776 .1749878 .08192444 .1749878 .090911868 .1769867 .09590149 .1789856 .10090637L.22599793 .22973633H.4850006L.5389862 .078933719C.54299929 .06893921 .5439911 .06594849 .5439911 .060958864 .5439911 .0309906 .48799134 .0309906 .46199037 .0309906V0C.5069885 .0029907227 .5589905 .0029907227 .6049957 .0029907227L.73599246 0M.47299195 .2607422H.23699951L.35499574 .5877838 .47299195 .2607422Z"/>
<path id="font_3_77" d="M.5469971 0V.0309906C.49598695 .03125 .47099305 .03125 .46998597 .0622406V.25431825C.46998597 .3373413 .46998597 .36636354 .44198609 .4013672 .4189911 .42938233 .3809967 .4423828 .33099366 .4423828 .23799134 .4423828 .19499207 .37335206 .18099976 .34535218H.17999268V.4423828L.034988405 .43066407V.3996582C.102996829 .3996582 .11199951 .39266969 .11199951 .34370423V.07695007C.11199951 .0309906 .100997928 .0309906 .034988405 .0309906V0C.08198547 .0019989014 .100997928 .0029907227 .14898682 .0029907227 .19699097 .0029907227 .20999146 .0019989014 .2630005 0V.0309906C.19699097 .0309906 .18598938 .0309906 .18598938 .07695007V.25878907C.18598938 .36532594 .26098634 .41737367 .32398988 .41737367 .3829956 .41737367 .3959961 .3683319 .3959961 .30825807V.077041629C.3959961 .0309906 .3849945 .0309906 .31900025 .0309906V0C.3659973 .0019989014 .3849945 .0029907227 .43299867 .0029907227 .48098756 .0029907227 .49398805 .0019989014 .5469971 0Z"/>
<path id="font_3_28" d="M.49699403 .089141849V.14515686H.46899415V.090148929C.46899415 .07914734 .46899415 .029129029 .43299867 .029129029 .39698792 .029129029 .39698792 .07714844 .39698792 .09315491V.26818849C.39698792 .32521058 .39698792 .3592224 .35198976 .40022279 .31498719 .43322755 .2669983 .4482422 .21699524 .4482422 .1329956 .4482422 .06298828 .40623475 .06298828 .34220887 .06298828 .311203 .083999637 .2942047 .10998535 .2942047 .13699341 .2942047 .1559906 .31420899 .1559906 .34020997 .1559906 .3832245 .11099243 .38822938 .11099243 .38822938 .13798523 .41423036 .18598938 .42323304 .21499634 .42323304 .2659912 .42323304 .32299806 .3852234 .32299806 .29719544V.26419068C.2689972 .26219178 .19400025 .2571869 .1269989 .22518921 .054992677 .19017029 .032989503 .13816834 .032989503 .09814453 .032989503 .01625061 .12998963-.0107421879 .19699097-.0107421879 .27999879-.0107421879 .31799317 .04425049 .33198548 .072250369 .33699037 .030136109 .3659973-.005859375 .40899659-.005859375 .43399049-.005859375 .49699403 .009140015 .49699403 .08912659V.089141849M.32299806 .14112854C.32299806 .04425049 .24798584 .014251709 .20399475 .014251709 .15699768 .014251709 .11299133 .04824829 .11299133 .098236087 .11299133 .16423035 .16999817 .23422241 .32299806 .24023438V.14112854Z"/>
<path id="font_3_72" d="M.26098634 0V.0309906C.19499207 .0309906 .18399048 .0309906 .18399048 .07701111V.69433596L.035995485 .6826172V.6516113C.10398865 .6516113 .11299133 .64460757 .11299133 .5956421V.07696533C.11299133 .0309906 .101989749 .0309906 .035995485 .0309906V0C.08299255 .0019989014 .101989749 .0029907227 .147995 .0029907227 .19499207 .0029907227 .21199036 .0019989014 .26098634 0Z"/>
<path id="font_3_118" d="M.519989 .3996582V.43066407C.48799134 .42765809 .45700074 .42765809 .44400025 .42765809 .41600038 .42765809 .3849945 .4286499 .35699464 .43066407V.3996582C.40299989 .3976593 .40299989 .36167909 .40299989 .35768128 .40299989 .3466797 .39898683 .33668519 .394989 .32868959L.2939911 .090789798 .18199158 .3526764C.17599488 .3666687 .17599488 .3736725 .17599488 .3736725 .17599488 .3996582 .20999146 .3996582 .23098755 .3996582V.43066407L.11999512 .42765809C.116989139 .42765809 .05999756 .42765809 .020996094 .43066407V.3996582C.06599426 .3996582 .084991458 .3976593 .09700012 .3706665L.25498963-.00016784668 .22999573-.059143068C.20799256-.11212158 .1789856-.18008423 .11399841-.18008423 .08898926-.18008423 .07199097-.167099 .068984989-.16508484 .07699585-.16407776 .10499573-.1560669 .10499573-.12205505 .10499573-.09605408 .085998538-.080062869 .06298828-.080062869 .037994386-.080062869 .019989014-.09605408 .019989014-.123046878 .019989014-.16807556 .06199646-.20507813 .11399841-.20507813 .1789856-.20507813 .22200012-.14706421 .24598694-.092056278L.4269867 .33068849C.43798829 .3566742 .45599366 .3976593 .519989 .3996582Z"/>
<path id="font_3_105" d="M.34199525 .12408447V.18099976H.31399537V.1270752C.31399537 .05319214 .2829895 .01725769 .24699402 .01725769 .17999268 .01725769 .17999268 .1051178 .17999268 .12309265V.3996582H.32499696V.43066407H.17999268V.6142578H.1519928C.15098572 .5304413 .115997318 .42765809 .018997193 .4246521V.3996582H.10598755V.12408447C.10598755 .012252808 .18699646-.0107421879 .23999024-.0107421879 .30699159-.011001587 .34199525 .052993776 .34199525 .12399292V.12408447Z"/>
<path id="font_3_66" d="M.25299073 0V.0309906C.18798828 .0309906 .18399048 .035995485 .18399048 .075042728V.4423828L.039993287 .43066407V.3996582C.10398865 .3996582 .11299133 .3936615 .11299133 .3447113V.07695007C.11299133 .0309906 .101989749 .0309906 .035995485 .0309906V0C.08099365 .0019989014 .101989749 .0029907227 .1459961 .0029907227 .1619873 .0029907227 .20399475 .0029907227 .25299073 0M.19699097 .6028137C.19699097 .63282778 .17298889 .6568146 .14299011 .6568146 .11299133 .6568146 .08898926 .63282778 .08898926 .6028137 .08898926 .57281497 .11299133 .5488281 .14299011 .5488281 .17298889 .5488281 .19699097 .57281497 .19699097 .6028137Z"/>
<path id="font_3_43" d="M.4269867 .11936951C.4269867 .13139344 .41600038 .13139344 .41299439 .13139344 .4019928 .13139344 .4019928 .12937927 .3959961 .11236572 .37298585 .043289186 .31698609 .01725769 .2659912 .01725769 .20199585 .01725769 .11999512 .06932068 .11999512 .21749878 .11999512 .3735962 .19999695 .42022706 .2599945 .42022706 .272995 .42022706 .32699586 .41825868 .3639984 .39356996 .34298707 .3895874 .32299806 .3755951 .32299806 .34658814 .32299806 .32058717 .34298707 .30059815 .36898805 .30059815 .394989 .30059815 .41600038 .31759645 .41600038 .34858705 .41600038 .4103546 .34599305 .4482422 .2579956 .4482422 .12998963 .4482422 .033996583 .3415985 .033996583 .2164917 .033996583 .08734131 .13798523-.0107421879 .2559967-.0107421879 .394989-.0107421879 .4269867 .11036682 .4269867 .11936951Z"/>
<path id="font_3_97" d="M.5130005 .18504334C.5130005 .24205017 .49198915 .28604127 .46798707 .31604005 .4249878 .37104798 .37998963 .38204957 .31498719 .39704896L.22698975 .41804505C.14698792 .43804933 .12098694 .5020447 .12098694 .546051 .12098694 .6130676 .1749878 .677063 .25898744 .677063 .3880005 .677063 .43998719 .5810547 .45399476 .4800415 .45700074 .4610443 .45799256 .4560547 .46998597 .4560547 .48399354 .4560547 .48399354 .4630432 .48399354 .48405458V.677063C.48399354 .69706729 .48399354 .7050781 .47200013 .7050781 .46499635 .7050781 .46398927 .70407107 .45700074 .69207766 .44400025 .67407229 .45399476 .68707278 .42099 .6350708 .4039917 .6550751 .35198976 .7050781 .2579956 .7050781 .14099121 .7047119 .056991579 .6137085 .056991579 .51171877 .056991579 .4336853 .10398865 .38565064 .10899353 .38064576 .1539917 .33662416 .17199707 .33161927 .29100038 .30360414 .37199403 .28459168 .3809967 .28259278 .4139862 .24856568 .4139862 .24856568 .44898988 .21055603 .44898988 .1515503 .44898988 .08354187 .3999939 .008529663 .30899049 .008529663 .23199463 .008529663 .09298706 .040542604 .084991458 .20555115 .083999637 .22055054 .083999637 .2265625 .070999149 .2265625 .056991579 .2265625 .056991579 .21855164 .056991579 .19854737V.0055389406C.056991579-.014465332 .056991579-.022460938 .068984989-.022460938 .07598877-.022460938 .07699585-.021469117 .083999637-.009475708 .09700012 .008529663 .08699036-.004470825 .11999512 .047531129 .18199158-.012466431 .26098634-.022460938 .30999757-.022460938 .43199159-.022460938 .5130005 .07752991 .5130005 .18452454V.18504334Z"/>
<path id="font_3_81" d="M.48399354 .21324158C.48399354 .34423829 .37998963 .4482422 .25698854 .4482422 .12998963 .4482422 .0289917 .3412323 .0289917 .21324158 .0289917 .08824158 .1329956-.0107421879 .2559967-.0107421879 .3829956-.0107421879 .48399354 .09024048 .48399354 .21324158M.397995 .22224427C.397995 .1852417 .397995 .12724304 .37298585 .08325195 .34498597 .037246705 .29899598 .01725769 .25698854 .01725769 .20698548 .01725769 .16499329 .042251588 .14199829 .08125305 .115997318 .12324524 .114990238 .17623902 .114990238 .22224427 .114990238 .25924684 .114990238 .3162384 .13999939 .35723878 .16999817 .40823365 .21998596 .42323304 .2559967 .42323304 .31298829 .42323304 .35398866 .39123536 .37399293 .35723878 .39698792 .31523133 .397995 .26423646 .397995 .22224427Z"/>
<path id="font_3_109" d="M.5469971 .00024414063V.03125C.47898866 .03125 .46998597 .038253786 .46998597 .087265018V.4423828L.31900025 .43138124V.40037538C.3869934 .40037538 .3959961 .39337159 .3959961 .34436036V.16729737C.3959961 .07826233 .34599305 .014251709 .27398683 .014251709 .19099427 .014251709 .18598938 .057266237 .18598938 .11128235V.4423828L.034988405 .43138124V.40037538C.11199951 .40037538 .11199951 .39736939 .11199951 .3083496V.15829468C.11199951 .09327698 .11199951 .051254274 .1579895 .01625061 .18699646-.003753662 .22799683-.0107421879 .2679901-.0107421879 .31999208-.0107421879 .36898805 .012252808 .397995 .072265628H.39898683V-.0107421879L.5469971 .00024414063Z"/>
</defs>
<path transform="matrix(1.00003,0,0,-1.00008,1.3955002,73.731868)" stroke-width=".79701" stroke-linecap="butt" stroke-miterlimit="10" stroke-linejoin="miter" fill="none" stroke="#7f807f" d="M4.36493 8.9861V11.82114M48.01437 8.9861V11.82114M91.66382 8.9861V11.82114"/>
<path transform="matrix(1.00003,0,0,-1.00008,1.3955002,73.731868)" stroke-width=".79701" stroke-linecap="butt" stroke-miterlimit="10" stroke-linejoin="miter" fill="none" stroke="#7f807f" d="M69.8391 8.27754V12.52968M113.48854 8.27754V12.52968"/>
<path transform="matrix(1.00003,0,0,-1.00008,1.3955002,73.731868)" stroke-width=".79701" stroke-linecap="butt" stroke-miterlimit="10" stroke-linejoin="miter" fill="none" stroke="#7f807f" d="M24.77226 21.9632H27.60704M24.77226 45.08237H27.60704"/>
<path transform="matrix(1.00003,0,0,-1.00008,1.3955002,73.731868)" stroke-width=".79701" stroke-linecap="butt" stroke-miterlimit="10" stroke-linejoin="miter" fill="none" stroke="#7f807f" d="M24.06378 33.52278H28.31552"/>
<path transform="matrix(1.00003,0,0,-1.00008,1.3955002,73.731868)" stroke-width=".99628" stroke-linecap="butt" stroke-miterlimit="10" stroke-linejoin="miter" fill="none" stroke="#000000" d="M0 10.40363H130.24158"/>
<path transform="matrix(1.00003,0,0,-1.00008,131.64099,63.3274)" d="M2.8892 0-1.73352 2.31136 0 0-1.73352-2.31136"/>
<path transform="matrix(1.00003,0,0,-1.00008,1.3955002,73.731868)" stroke-width=".99628" stroke-linecap="butt" stroke-miterlimit="10" stroke-linejoin="miter" fill="none" stroke="#000000" d="M26.18965 0V50.86285"/>
<path transform="matrix(0,-1.00008,-1.00003,-0,27.585936,22.864945)" d="M2.8892 0-1.73352 2.31136 0 0-1.73352-2.31136"/>
<use data-text="1" xlink:href="#font_1_1" transform="matrix(9.962899,0,0,-9.963397,68.74552,75.69402)"/>
<use data-text="2" xlink:href="#font_1_2" transform="matrix(9.962899,0,0,-9.963397,112.396839,75.69402)"/>
<use data-text="4" xlink:href="#font_1_3" transform="matrix(9.962899,0,0,-9.963397,16.659958,43.416444)"/>
<g clip-path="url(#clip_2)">
<path transform="matrix(1.00003,0,0,-1.00008,1.3955002,73.731868)" stroke-width=".99628" stroke-linecap="butt" stroke-miterlimit="10" stroke-linejoin="miter" fill="none" stroke="#0000ff" d="M26.18965 16.18341 27.97125 16.42407 29.75284 16.67493 31.53442 16.93605 33.31602 17.20816 35.09764 17.49167 36.87921 17.78694 38.66081 18.09438 40.44241 18.41498 42.224 18.74866 44.0056 19.09631 45.7872 19.45834 47.56879 19.83537 49.35039 20.22827 51.13199 20.63777 52.91357 21.0641 54.69518 21.50821 56.47678 21.97072 58.25836 22.45251 60.03996 22.95454 61.82156 23.47751 63.60315 24.02196 65.38475 24.58913 67.16635 25.1803 68.94794 25.79578 70.72954 26.43723 72.51112 27.10501 74.29271 27.80067 76.07431 28.52533 77.8559 29.28035 79.63748 30.06653 81.41908 30.88615 83.20067 31.73907 84.98225 32.62779 86.76385 33.55376 88.54544 34.51813 90.32703 35.5227 92.10863 36.56914 93.89021 37.65903 95.6718 38.7944 97.4534 39.97743 99.23499 41.20938 101.01657 42.49268 102.79817 43.82959 104.57976 45.22165 106.36134 46.67186 108.14294 48.18369 109.92453 49.75705 111.70612 51.39546 113.48772 53.10356"/>
<path transform="matrix(1.00003,0,0,-1.00008,1.3955002,73.731868)" stroke-width=".3985" stroke-linecap="butt" stroke-miterlimit="10" stroke-linejoin="miter" fill="none" stroke="#7f807f" d="M.87299 0V.42706"/>
<path transform="matrix(1.00003,0,0,-1.00008,1.3955002,73.731868)" stroke-width=".79701" stroke-linecap="butt" stroke-dasharray="2.98883,2.98883" stroke-miterlimit="10" stroke-linejoin="miter" fill="none" stroke="#000000" d="M.2837 .11069V0"/>
<path transform="matrix(1.00003,0,0,-1.00008,1.3955002,73.731868)" stroke-width=".79701" stroke-linecap="butt" stroke-dasharray="2.98883,2.98883" stroke-miterlimit="10" stroke-linejoin="miter" fill="none" stroke="#000000" d="M.2837 .11069H0"/>
<use data-text="0" xlink:href="#font_3_121" transform="matrix(8.966669,0,0,-8.967117,-6.516739,83.522647)"/>
<use data-text="." xlink:href="#font_3_88" transform="matrix(8.966669,0,0,-8.967117,-1.9078751,83.522647)"/>
<use data-text="6" xlink:href="#font_3_101" transform="matrix(8.966669,0,0,-8.967117,.65660098,83.522647)"/>
<use data-text="5" xlink:href="#font_3_56" transform="matrix(8.966669,0,0,-8.967117,5.265465,83.522647)"/>
<use data-text="1" xlink:href="#font_4_1" transform="matrix(8.966669,0,0,-8.967117,-23.415246,76.510089)"/>
<use data-text="." xlink:href="#font_5_1" transform="matrix(8.966669,0,0,-8.967117,-18.807106,76.510089)"/>
<use data-text="9" xlink:href="#font_4_3" transform="matrix(8.966669,0,0,-8.967117,-16.248024,76.510089)"/>
<use data-text="1" xlink:href="#font_4_1" transform="matrix(8.966669,0,0,-8.967117,-11.648125,76.510089)"/>
<use data-text="6" xlink:href="#font_4_2" transform="matrix(8.966669,0,0,-8.967117,-7.0482256,76.510089)"/>
<use data-text="e" xlink:href="#font_6_1" transform="matrix(11.95556,0,0,-11.956157,-2.4406129,69.623538)" fill="#0000ff"/>
<use data-text="t" xlink:href="#font_7_1" transform="matrix(7.9703395,0,0,-7.9707376,2.984558,65.28519)" fill="#0000ff"/>
</g>
<use data-text="t" xlink:href="#font_8_1" transform="matrix(9.962899,0,0,-9.963397,127.110279,59.508729)"/>
<use data-text="y" xlink:href="#font_8_2" transform="matrix(9.962899,0,0,-9.963397,31.403405,28.085213)"/>
<use data-text="A" xlink:href="#font_3_27" transform="matrix(8.966669,0,0,-8.967117,32.620439,8.33963)"/>
<use data-text="n" xlink:href="#font_3_77" transform="matrix(8.966669,0,0,-8.967117,39.533746,8.33963)"/>
<use data-text="a" xlink:href="#font_3_28" transform="matrix(8.966669,0,0,-8.967117,44.65371,8.33963)"/>
<use data-text="l" xlink:href="#font_3_72" transform="matrix(8.966669,0,0,-8.967117,49.262575,8.33963)"/>
<use data-text="y" xlink:href="#font_3_118" transform="matrix(8.966669,0,0,-8.967117,51.82704,8.33963)"/>
<use data-text="t" xlink:href="#font_3_105" transform="matrix(8.966669,0,0,-8.967117,56.686975,8.33963)"/>
<use data-text="i" xlink:href="#font_3_66" transform="matrix(8.966669,0,0,-8.967117,60.273645,8.33963)"/>
<use data-text="c" xlink:href="#font_3_43" transform="matrix(8.966669,0,0,-8.967117,62.83811,8.33963)"/>
<use data-text="S" xlink:href="#font_3_97" transform="matrix(8.966669,0,0,-8.967117,70.00249,8.33963)"/>
<use data-text="o" xlink:href="#font_3_81" transform="matrix(8.966669,0,0,-8.967117,75.13142,8.33963)"/>
<use data-text="l" xlink:href="#font_3_72" transform="matrix(8.966669,0,0,-8.967117,79.74029,8.33963)"/>
<use data-text="u" xlink:href="#font_3_109" transform="matrix(8.966669,0,0,-8.967117,82.304759,8.33963)"/>
<use data-text="t" xlink:href="#font_3_105" transform="matrix(8.966669,0,0,-8.967117,87.42472,8.33963)"/>
<use data-text="i" xlink:href="#font_3_66" transform="matrix(8.966669,0,0,-8.967117,91.01139,8.33963)"/>
<use data-text="o" xlink:href="#font_3_81" transform="matrix(8.966669,0,0,-8.967117,93.57586,8.33963)"/>
<use data-text="n" xlink:href="#font_3_77" transform="matrix(8.966669,0,0,-8.967117,98.18473,8.33963)"/>
</svg>
